<svg width="109" height="109" viewBox="0 0 109 109" fill="none" xmlns="http://www.w3.org/2000/svg">
<g clip-path="url(#clip0_1_747)">
<path d="M54.5 109C84.5995 109 109 84.5995 109 54.5C109 24.4005 84.5995 0 54.5 0C24.4005 0 0 24.4005 0 54.5C0 84.5995 24.4005 109 54.5 109Z" fill="#013A4C"/>
<path d="M26.0822 30.8315H82.9179" stroke="white" stroke-width="3.4" stroke-linecap="square"/>
<path d="M35.5807 78.1687C37.0744 78.1687 38.5345 77.7258 39.7765 76.896C41.0184 76.0661 41.9864 74.8867 42.558 73.5067C43.1296 72.1267 43.2791 70.6082 42.9877 69.1432C42.6963 67.6783 41.9771 66.3326 40.9209 65.2764C39.8647 64.2202 38.519 63.501 37.0541 63.2096C35.5891 62.9182 34.0706 63.0677 32.6906 63.6393C31.3107 64.2109 30.1312 65.1789 29.3013 66.4209C28.4715 67.6628 28.0286 69.1229 28.0286 70.6166C28.0286 71.6084 28.2239 72.5904 28.6034 73.5067C28.983 74.4229 29.5393 75.2555 30.2405 75.9568C30.9418 76.658 31.7744 77.2143 32.6906 77.5939C33.6069 77.9734 34.5889 78.1687 35.5807 78.1687V78.1687Z" stroke="white" stroke-width="3.4" stroke-linecap="square"/>
<path d="M35.5807 63.0644V30.7537" stroke="white" stroke-width="3.4"/>
<path d="M50.7629 78.1686C52.2531 78.1532 53.7055 77.6973 54.9372 76.8581C56.1688 76.019 57.1247 74.8342 57.6844 73.453C58.2441 72.0717 58.3826 70.5558 58.0824 69.0959C57.7823 67.6361 57.0569 66.2978 55.9977 65.2494C54.9385 64.2009 53.5928 63.4894 52.13 63.2042C50.6672 62.9191 49.1527 63.0731 47.7772 63.6469C46.4018 64.2207 45.2269 65.1887 44.4004 66.4289C43.574 67.6691 43.133 69.1261 43.1329 70.6164C43.1328 71.6148 43.3307 72.6032 43.7151 73.5246C44.0995 74.446 44.6628 75.282 45.3723 75.9843C46.0818 76.6866 46.9236 77.2413 47.8489 77.6162C48.7741 77.9911 49.7646 78.1789 50.7629 78.1686V78.1686Z" stroke="white" stroke-width="3.4" stroke-linecap="square"/>
<path d="M50.7629 63.0644V30.7537" stroke="white" stroke-width="3.4"/>
<path d="M81.75 60.9623C82.5133 62.2417 82.8811 63.7183 82.8072 65.2063C82.7333 66.6942 82.2209 68.1271 81.3346 69.3245C80.4483 70.522 79.2276 71.4306 77.8261 71.9359C76.4247 72.4413 74.905 72.5208 73.4585 72.1646C72.0119 71.8083 70.703 71.0322 69.6965 69.9338C68.69 68.8355 68.0308 67.464 67.8019 65.9919C67.573 64.5197 67.7846 63.0128 68.4101 61.6607C69.0356 60.3086 70.0471 59.1717 71.3172 58.393C72.1646 57.8673 73.1077 57.5146 74.0921 57.3553C75.0766 57.196 76.0828 57.2332 77.0527 57.4649C78.0227 57.6965 78.9372 58.1179 79.7434 58.7048C80.5496 59.2918 81.2316 60.0326 81.75 60.8844V60.9623Z" stroke="white" stroke-width="3.4" stroke-linecap="square"/>
<path d="M72.5628 57.848L61.8964 30.8315" stroke="white" stroke-width="3.4"/>
</g>
<defs>
<clipPath id="clip0_1_747">
<rect width="109" height="109" fill="white"/>
</clipPath>
</defs>
</svg>
