<svg width="262" height="122" viewBox="0 0 262 122" fill="none" xmlns="http://www.w3.org/2000/svg">
<g filter="url(#filter0_d_27_29)">
<path d="M233.599 81.1204H47.7852C43.4913 81.1204 40 77.6492 40 73.3502V27.7702C40 23.4846 43.4913 20 47.7852 20H233.599C237.893 20 241.384 23.4846 241.384 27.7702V73.3635C241.384 77.6492 237.906 81.1204 233.599 81.1204Z" fill="black"/>
<path d="M58.2991 44.9799C55.0352 50.6407 57.1086 59.2253 60.7203 64.4322C62.5261 67.0356 64.3453 69.372 66.8467 69.372C66.9002 69.372 66.9404 69.372 66.9939 69.372C68.171 69.3319 69.0137 68.9581 69.8431 68.611C70.7661 68.2238 71.7158 67.8099 73.214 67.8099C74.6319 67.8099 75.5415 68.1971 76.4243 68.5843C77.2938 68.9581 78.1767 69.3453 79.5009 69.3186C82.3234 69.2652 84.049 66.7419 85.5739 64.5256C87.1657 62.2026 87.9683 59.9463 88.2358 59.0918L88.2492 59.0517C88.3027 58.9049 88.2225 58.7313 88.0753 58.6646C88.0753 58.6646 88.0619 58.6512 88.0486 58.6512C87.5536 58.451 83.2063 56.5284 83.1527 51.2682C83.1126 46.9959 86.4166 44.7396 87.0854 44.3391L87.1122 44.3257C87.1791 44.2857 87.2326 44.2055 87.246 44.1254C87.2593 44.0453 87.246 43.9519 87.1925 43.8851C84.9051 40.5474 81.4138 40.0534 80.0093 39.9867C79.8086 39.96 79.5946 39.96 79.3806 39.96C77.7219 39.96 76.1434 40.5875 74.8727 41.0814C73.9898 41.4286 73.2407 41.7223 72.7057 41.7223C72.1171 41.7223 71.3546 41.4152 70.4718 41.0681C69.2946 40.6008 67.9436 40.0668 66.5257 40.0668C66.4856 40.0668 66.4588 40.0668 66.4321 40.0668C63.1414 40.1068 60.0247 41.9893 58.2991 44.9799Z" fill="white"/>
<path d="M80.0092 30.8008C78.0161 30.8809 75.6217 32.1092 74.1904 33.7781C72.9732 35.1799 71.7827 37.5297 72.1037 39.8928C72.1171 40.0396 72.2508 40.1598 72.398 40.1731C72.5318 40.1865 72.6655 40.1865 72.8127 40.1865C74.7656 40.1865 76.8658 39.1051 78.3104 37.3695C79.822 35.5404 80.5844 33.1773 80.357 31.0812C80.3303 30.9076 80.1831 30.7875 80.0092 30.8008Z" fill="white"/>
<path d="M102.99 33.938H106.776C107.766 33.938 108.648 34.1383 109.424 34.5521C110.2 34.966 110.789 35.5267 111.217 36.2477C111.645 36.9686 111.859 37.7964 111.859 38.7043C111.859 39.6255 111.645 40.4399 111.217 41.1608C110.789 41.8818 110.187 42.4559 109.424 42.8564C108.648 43.2703 107.766 43.4705 106.776 43.4705H102.99V33.938ZM106.722 42.8697C107.605 42.8697 108.381 42.6962 109.063 42.3491C109.732 42.0019 110.254 41.5079 110.628 40.8805C110.989 40.253 111.177 39.532 111.177 38.731C111.177 37.9166 110.989 37.209 110.628 36.5815C110.267 35.954 109.745 35.46 109.063 35.1129C108.394 34.7657 107.605 34.5922 106.722 34.5922H103.686V42.8831H106.722V42.8697Z" fill="white"/>
<path d="M115.029 43.0837C114.481 42.7766 114.066 42.3494 113.745 41.7887C113.437 41.2413 113.277 40.6138 113.277 39.9195C113.277 39.2253 113.437 38.6111 113.745 38.0504C114.053 37.503 114.481 37.0758 115.029 36.7554C115.578 36.4483 116.179 36.2881 116.848 36.2881C117.517 36.2881 118.132 36.4483 118.667 36.7554C119.216 37.0624 119.631 37.4897 119.952 38.0504C120.259 38.5978 120.42 39.2253 120.42 39.9195C120.42 40.6138 120.259 41.2279 119.952 41.7887C119.644 42.336 119.216 42.7633 118.667 43.0837C118.119 43.3908 117.517 43.551 116.848 43.551C116.179 43.551 115.578 43.3908 115.029 43.0837ZM118.333 42.5497C118.761 42.296 119.109 41.9355 119.363 41.4816C119.617 41.0277 119.738 40.507 119.738 39.9195C119.738 39.3321 119.617 38.8248 119.363 38.3575C119.109 37.9035 118.774 37.5431 118.333 37.2894C117.905 37.0357 117.41 36.9022 116.862 36.9022C116.313 36.9022 115.818 37.0357 115.39 37.2894C114.962 37.5431 114.614 37.9035 114.36 38.3575C114.106 38.8114 113.986 39.3321 113.986 39.9195C113.986 40.507 114.106 41.0143 114.36 41.4816C114.614 41.9355 114.949 42.296 115.39 42.5497C115.818 42.8033 116.313 42.9368 116.862 42.9368C117.41 42.9368 117.892 42.8033 118.333 42.5497Z" fill="white"/>
<path d="M132.539 36.3682L129.837 43.4975H129.195L126.787 37.3161L124.366 43.4975H123.737L121.035 36.3682H121.691L124.072 42.7232L126.506 36.3682H127.095L129.516 42.7098L131.924 36.3682H132.539Z" fill="white"/>
<path d="M139.736 37.1028C140.257 37.6235 140.511 38.3711 140.511 39.3458V43.4979H139.829V39.3858C139.829 38.5848 139.629 37.9706 139.227 37.5567C138.826 37.1429 138.251 36.9293 137.528 36.9293C136.686 36.9293 136.03 37.1829 135.549 37.6769C135.067 38.1709 134.826 38.8518 134.826 39.6929V43.4979H134.144V36.3685H134.8V37.9039C135.04 37.4099 135.415 37.0094 135.896 36.729C136.378 36.4486 136.967 36.3018 137.622 36.3018C138.505 36.3151 139.214 36.5821 139.736 37.1028Z" fill="white"/>
<path d="M143.32 33.3774H144.003V43.4974H143.32V33.3774Z" fill="white"/>
<path d="M147.855 43.0837C147.307 42.7766 146.892 42.3494 146.571 41.7887C146.263 41.2413 146.103 40.6138 146.103 39.9195C146.103 39.2253 146.263 38.6111 146.571 38.0504C146.879 37.503 147.307 37.0758 147.855 36.7554C148.404 36.4483 149.005 36.2881 149.674 36.2881C150.343 36.2881 150.958 36.4483 151.494 36.7554C152.042 37.0624 152.457 37.4897 152.778 38.0504C153.085 38.5978 153.246 39.2253 153.246 39.9195C153.246 40.6138 153.085 41.2279 152.778 41.7887C152.47 42.336 152.042 42.7633 151.494 43.0837C150.945 43.3908 150.343 43.551 149.674 43.551C149.005 43.551 148.404 43.3908 147.855 43.0837ZM151.159 42.5497C151.587 42.296 151.935 41.9355 152.189 41.4816C152.443 41.0277 152.564 40.507 152.564 39.9195C152.564 39.3321 152.443 38.8248 152.189 38.3575C151.935 37.9035 151.601 37.5431 151.159 37.2894C150.731 37.0357 150.236 36.9022 149.688 36.9022C149.139 36.9022 148.644 37.0357 148.216 37.2894C147.788 37.5431 147.44 37.9035 147.186 38.3575C146.932 38.8114 146.812 39.3321 146.812 39.9195C146.812 40.507 146.932 41.0143 147.186 41.4816C147.44 41.9355 147.775 42.296 148.216 42.5497C148.644 42.8033 149.139 42.9368 149.688 42.9368C150.236 42.9368 150.718 42.8033 151.159 42.5497Z" fill="white"/>
<path d="M159.787 36.9958C160.255 37.4498 160.496 38.104 160.496 38.9851V43.4977H159.841V42.2294C159.613 42.6433 159.279 42.977 158.837 43.204C158.396 43.431 157.874 43.5511 157.259 43.5511C156.47 43.5511 155.841 43.3642 155.373 42.9904C154.918 42.6166 154.677 42.1226 154.677 41.5218C154.677 40.9344 154.891 40.4537 155.319 40.0799C155.747 39.7061 156.416 39.5325 157.352 39.5325H159.8V38.9584C159.8 38.2909 159.626 37.7835 159.265 37.4498C158.904 37.1026 158.382 36.9291 157.687 36.9291C157.219 36.9291 156.764 37.0092 156.322 37.1694C155.894 37.3296 155.52 37.5566 155.226 37.8236L154.878 37.3296C155.239 37.0092 155.667 36.7689 156.162 36.582C156.657 36.4084 157.192 36.3149 157.74 36.3149C158.637 36.3149 159.319 36.5419 159.787 36.9958ZM158.877 42.5765C159.292 42.3095 159.6 41.909 159.814 41.3883V40.0532H157.379C156.684 40.0532 156.175 40.1867 155.854 40.4404C155.533 40.694 155.386 41.0412 155.386 41.4951C155.386 41.9624 155.56 42.3228 155.908 42.5899C156.256 42.8569 156.737 42.9904 157.366 42.9904C157.954 42.9904 158.463 42.8569 158.877 42.5765Z" fill="white"/>
<path d="M169.672 33.3776V43.4976H169.003V41.8154C168.723 42.3761 168.321 42.8033 167.813 43.0971C167.305 43.3908 166.729 43.551 166.074 43.551C165.405 43.551 164.803 43.3908 164.268 43.0837C163.733 42.7766 163.305 42.3494 162.997 41.802C162.69 41.2546 162.543 40.6271 162.543 39.9329C162.543 39.2387 162.69 38.6112 162.997 38.0504C163.305 37.503 163.72 37.0758 164.268 36.7687C164.803 36.4617 165.405 36.3148 166.074 36.3148C166.716 36.3148 167.278 36.4617 167.786 36.7687C168.294 37.0625 168.696 37.4897 168.977 38.0237V33.3643H169.672V33.3776ZM167.586 42.5497C168.014 42.296 168.361 41.9355 168.615 41.4816C168.87 41.0277 168.99 40.507 168.99 39.9195C168.99 39.3321 168.87 38.8248 168.615 38.3575C168.361 37.9036 168.027 37.5431 167.586 37.2894C167.157 37.0358 166.663 36.9022 166.114 36.9022C165.566 36.9022 165.071 37.0358 164.643 37.2894C164.215 37.5431 163.867 37.9036 163.613 38.3575C163.359 38.8114 163.238 39.3321 163.238 39.9195C163.238 40.507 163.359 41.0143 163.613 41.4816C163.867 41.9355 164.201 42.296 164.643 42.5497C165.071 42.8033 165.566 42.9369 166.114 42.9369C166.663 42.9369 167.157 42.8033 167.586 42.5497Z" fill="white"/>
<path d="M177.029 43.0837C176.481 42.7766 176.066 42.3494 175.745 41.7887C175.438 41.2413 175.277 40.6138 175.277 39.9195C175.277 39.2253 175.438 38.6111 175.745 38.0504C176.053 37.503 176.481 37.0758 177.029 36.7554C177.578 36.4483 178.18 36.2881 178.849 36.2881C179.517 36.2881 180.133 36.4483 180.668 36.7554C181.216 37.0624 181.631 37.4897 181.952 38.0504C182.26 38.5978 182.42 39.2253 182.42 39.9195C182.42 40.6138 182.26 41.2279 181.952 41.7887C181.644 42.336 181.216 42.7633 180.668 43.0837C180.119 43.3908 179.517 43.551 178.849 43.551C178.18 43.551 177.578 43.3908 177.029 43.0837ZM180.333 42.5497C180.761 42.296 181.109 41.9355 181.363 41.4816C181.618 41.0277 181.738 40.507 181.738 39.9195C181.738 39.3321 181.618 38.8248 181.363 38.3575C181.109 37.9035 180.775 37.5431 180.333 37.2894C179.905 37.0357 179.41 36.9022 178.862 36.9022C178.314 36.9022 177.819 37.0357 177.391 37.2894C176.962 37.5431 176.615 37.9035 176.361 38.3575C176.106 38.8114 175.986 39.3321 175.986 39.9195C175.986 40.507 176.106 41.0143 176.361 41.4816C176.615 41.9355 176.949 42.296 177.391 42.5497C177.819 42.8033 178.314 42.9368 178.862 42.9368C179.41 42.9368 179.892 42.8033 180.333 42.5497Z" fill="white"/>
<path d="M190.152 37.1028C190.673 37.6235 190.928 38.3711 190.928 39.3458V43.4979H190.245V39.3858C190.245 38.5848 190.045 37.9706 189.643 37.5567C189.242 37.1429 188.667 36.9293 187.945 36.9293C187.102 36.9293 186.446 37.1829 185.965 37.6769C185.483 38.1709 185.243 38.8518 185.243 39.6929V43.4979H184.56V36.3685H185.216V37.9039C185.457 37.4099 185.831 37.0094 186.313 36.729C186.794 36.4486 187.383 36.3018 188.038 36.3018C188.921 36.3151 189.63 36.5821 190.152 37.1028Z" fill="white"/>
<path d="M200.799 43.0435C200.626 43.2037 200.412 43.3372 200.144 43.4173C199.89 43.4974 199.609 43.5508 199.328 43.5508C198.713 43.5508 198.231 43.3773 197.897 43.0435C197.562 42.6964 197.388 42.2291 197.388 41.6149V36.9555H196.078V36.368H197.388V34.8193H198.071V36.3814H200.345V36.9688H198.071V41.5482C198.071 42.0155 198.178 42.3626 198.405 42.6029C198.632 42.8432 198.954 42.9634 199.395 42.9634C199.836 42.9634 200.211 42.8299 200.505 42.5629L200.799 43.0435Z" fill="white"/>
<path d="M208.304 37.1023C208.825 37.623 209.08 38.3707 209.08 39.3453V43.4974H208.397V39.3853C208.397 38.5843 208.197 37.9702 207.795 37.5563C207.394 37.1424 206.819 36.9288 206.097 36.9288C205.254 36.9288 204.598 37.1824 204.117 37.6764C203.635 38.1704 203.395 38.8513 203.395 39.6924V43.4974H202.712V33.3774H203.395V37.8633C203.635 37.3694 204.01 36.9955 204.491 36.7285C204.973 36.4615 205.548 36.328 206.204 36.328C207.086 36.3146 207.795 36.5817 208.304 37.1023Z" fill="white"/>
<path d="M217.948 40.0931H211.808C211.822 40.6538 211.969 41.1478 212.236 41.575C212.504 42.0023 212.865 42.336 213.307 42.5764C213.761 42.8167 214.27 42.9368 214.832 42.9368C215.3 42.9368 215.728 42.8567 216.129 42.6832C216.53 42.5096 216.851 42.2693 217.119 41.9355L217.52 42.3894C217.213 42.7633 216.825 43.0436 216.356 43.2439C215.888 43.4442 215.38 43.5376 214.832 43.5376C214.123 43.5376 213.48 43.3774 212.932 43.0703C212.37 42.7633 211.942 42.336 211.621 41.7887C211.3 41.2413 211.153 40.6138 211.153 39.9195C211.153 39.2253 211.3 38.6111 211.594 38.0504C211.889 37.503 212.303 37.0758 212.812 36.7554C213.333 36.4483 213.909 36.2881 214.564 36.2881C215.206 36.2881 215.795 36.4349 216.303 36.742C216.811 37.0491 217.226 37.4763 217.52 38.0237C217.814 38.5711 217.962 39.1852 217.962 39.8795L217.948 40.0931ZM213.2 37.2494C212.798 37.4763 212.477 37.7834 212.236 38.1973C211.996 38.5978 211.862 39.0651 211.822 39.5724H217.293C217.266 39.0651 217.132 38.6111 216.878 38.2106C216.637 37.8101 216.303 37.503 215.902 37.2627C215.5 37.0357 215.046 36.9156 214.551 36.9156C214.056 36.9156 213.601 37.0357 213.2 37.2494Z" fill="white"/>
<path d="M113.116 64.6187H104.943L103.325 68.397H100.194L107.552 52.0688H110.548L117.932 68.397H114.748L113.116 64.6187ZM112.113 62.2289L109.023 55.0995L105.96 62.2289H112.113Z" fill="white"/>
<path d="M129.904 56.595C130.867 57.129 131.616 57.8633 132.164 58.8379C132.713 59.7992 132.98 60.9073 132.98 62.1757C132.98 63.4307 132.713 64.5521 132.164 65.5268C131.616 66.5014 130.867 67.249 129.904 67.7831C128.941 68.3171 127.857 68.5708 126.64 68.5708C124.954 68.5708 123.63 68.01 122.64 66.8885V72.9231H119.724V55.9408H122.507V57.5696C122.988 56.9822 123.59 56.5416 124.299 56.2345C125.008 55.9408 125.784 55.7939 126.653 55.7939C127.857 55.7939 128.941 56.061 129.904 56.595ZM128.967 64.9927C129.663 64.2718 130.011 63.3372 130.011 62.1757C130.011 61.0141 129.663 60.0662 128.967 59.3586C128.272 58.6377 127.389 58.2906 126.319 58.2906C125.623 58.2906 124.981 58.4508 124.433 58.7712C123.871 59.0916 123.43 59.5455 123.095 60.133C122.774 60.7204 122.6 61.4013 122.6 62.189C122.6 62.9634 122.761 63.6443 123.095 64.2451C123.416 64.8325 123.871 65.2864 124.433 65.6069C124.995 65.9273 125.623 66.0875 126.319 66.0875C127.389 66.0608 128.272 65.7003 128.967 64.9927Z" fill="white"/>
<path d="M145.929 56.595C146.892 57.129 147.641 57.8633 148.19 58.8379C148.738 59.7992 149.006 60.9073 149.006 62.1757C149.006 63.4307 148.738 64.5521 148.19 65.5268C147.641 66.5014 146.892 67.249 145.929 67.7831C144.966 68.3171 143.882 68.5708 142.665 68.5708C140.98 68.5708 139.655 68.01 138.665 66.8885V72.9231H135.749V55.9408H138.532V57.5696C139.013 56.9822 139.615 56.5416 140.324 56.2345C141.033 55.9408 141.809 55.7939 142.678 55.7939C143.882 55.7939 144.979 56.061 145.929 56.595ZM144.993 64.9927C145.688 64.2718 146.036 63.3372 146.036 62.1757C146.036 61.0141 145.688 60.0662 144.993 59.3586C144.297 58.6377 143.414 58.2906 142.344 58.2906C141.648 58.2906 141.006 58.4508 140.458 58.7712C139.896 59.0916 139.455 59.5455 139.12 60.133C138.799 60.7204 138.625 61.4013 138.625 62.189C138.625 62.9634 138.786 63.6443 139.12 64.2451C139.441 64.8325 139.896 65.2864 140.458 65.6069C141.02 65.9273 141.648 66.0875 142.344 66.0875C143.414 66.0608 144.297 65.7003 144.993 64.9927Z" fill="white"/>
<path d="M159.921 68.0897C158.744 67.7292 157.821 67.2619 157.125 66.6611L158.182 64.3114C158.851 64.8454 159.667 65.2726 160.643 65.6064C161.62 65.9402 162.596 66.1137 163.573 66.1137C164.79 66.1137 165.699 65.9135 166.288 65.5263C166.89 65.1391 167.184 64.6184 167.184 63.9909C167.184 63.5237 167.01 63.1365 166.676 62.8428C166.341 62.5357 165.913 62.3087 165.405 62.1352C164.897 61.9616 164.188 61.7747 163.305 61.5477C162.061 61.254 161.044 60.9603 160.282 60.6666C159.506 60.3729 158.851 59.9056 158.302 59.2781C157.754 58.6506 157.473 57.7961 157.473 56.7281C157.473 55.8202 157.714 55.0058 158.209 54.2715C158.703 53.5372 159.439 52.9498 160.429 52.5092C161.419 52.0686 162.623 51.855 164.067 51.855C165.071 51.855 166.047 51.9751 167.01 52.2288C167.973 52.4825 168.803 52.8296 169.512 53.2969L168.549 55.6466C167.826 55.2328 167.091 54.9123 166.301 54.6854C165.526 54.4718 164.763 54.3649 164.041 54.3649C162.837 54.3649 161.954 54.5652 161.365 54.9657C160.777 55.3663 160.496 55.9003 160.496 56.5812C160.496 57.0485 160.656 57.4223 161.004 57.7294C161.339 58.0231 161.767 58.2634 162.275 58.4236C162.783 58.5972 163.492 58.7841 164.375 59.0111C165.592 59.2914 166.582 59.5852 167.371 59.8789C168.147 60.1859 168.816 60.6399 169.365 61.2674C169.913 61.8949 170.194 62.7226 170.194 63.7907C170.194 64.6985 169.953 65.5129 169.458 66.2339C168.963 66.9682 168.228 67.5423 167.224 67.9829C166.221 68.4234 165.017 68.6371 163.586 68.6371C162.315 68.6237 161.098 68.4501 159.921 68.0897Z" fill="white"/>
<path d="M180.427 67.7157C180.079 67.9961 179.665 68.2097 179.183 68.3432C178.688 68.4767 178.18 68.5568 177.631 68.5568C176.267 68.5568 175.197 68.1964 174.448 67.4888C173.699 66.7678 173.324 65.7264 173.324 64.3646V58.3701H171.264V56.0337H173.324V53.1899H176.24V56.0337H179.584V58.3701H176.24V64.2979C176.24 64.8987 176.387 65.366 176.682 65.6864C176.976 66.0068 177.404 66.167 177.966 66.167C178.621 66.167 179.17 65.9935 179.598 65.6597L180.427 67.7157Z" fill="white"/>
<path d="M184.614 67.7427C183.597 67.1953 182.808 66.4343 182.246 65.473C181.671 64.4984 181.39 63.4036 181.39 62.1753C181.39 60.9471 181.671 59.8523 182.246 58.891C182.808 57.9298 183.611 57.1688 184.614 56.6347C185.63 56.0873 186.768 55.8203 188.025 55.8203C189.296 55.8203 190.446 56.0873 191.463 56.6347C192.479 57.1821 193.269 57.9298 193.83 58.891C194.392 59.8523 194.686 60.9471 194.686 62.1753C194.686 63.4036 194.406 64.4984 193.83 65.473C193.255 66.4476 192.466 67.2086 191.463 67.7427C190.446 68.2901 189.309 68.5571 188.025 68.5571C186.754 68.5571 185.617 68.2767 184.614 67.7427ZM190.687 64.9924C191.382 64.2714 191.744 63.3369 191.744 62.1753C191.744 61.0138 191.396 60.0659 190.687 59.3583C189.991 58.6374 189.095 58.2902 188.025 58.2902C186.955 58.2902 186.072 58.6507 185.376 59.3583C184.681 60.0792 184.333 61.0138 184.333 62.1753C184.333 63.3369 184.681 64.2848 185.376 64.9924C186.072 65.7133 186.955 66.0605 188.025 66.0605C189.095 66.0605 189.978 65.7 190.687 64.9924Z" fill="white"/>
<path d="M204.705 55.7939V58.5709C204.451 58.5309 204.224 58.5042 204.023 58.5042C202.886 58.5042 202.003 58.8379 201.361 59.4921C200.719 60.1597 200.398 61.1076 200.398 62.3492V68.3838H197.482V55.9275H200.264V57.7432C201.107 56.4481 202.592 55.7939 204.705 55.7939Z" fill="white"/>
<path d="M218.751 63.0967H208.959C209.133 64.0179 209.575 64.7389 210.297 65.2729C211.019 65.807 211.915 66.074 212.999 66.074C214.363 66.074 215.5 65.62 216.383 64.7255L217.948 66.5145C217.386 67.1821 216.677 67.6894 215.821 68.0366C214.965 68.3837 214.002 68.5439 212.919 68.5439C211.554 68.5439 210.337 68.2769 209.294 67.7295C208.25 67.1821 207.448 66.4211 206.872 65.4598C206.297 64.4852 206.016 63.3904 206.016 62.1622C206.016 60.9472 206.297 59.8524 206.846 58.8912C207.394 57.9166 208.17 57.1556 209.146 56.6215C210.123 56.0741 211.233 55.8071 212.464 55.8071C213.681 55.8071 214.765 56.0741 215.728 56.6082C216.691 57.1422 217.44 57.9032 217.975 58.8645C218.51 59.8391 218.778 60.9606 218.778 62.2289C218.791 62.4425 218.778 62.7229 218.751 63.0967ZM210.11 58.9579C209.468 59.5053 209.066 60.2396 208.932 61.1608H216.009C215.888 60.253 215.5 59.532 214.858 58.9713C214.216 58.4106 213.427 58.1302 212.477 58.1302C211.554 58.1302 210.765 58.4106 210.11 58.9579Z" fill="white"/>
</g>
<defs>
<filter id="filter0_d_27_29" x="0" y="0" width="261.384" height="121.121" filterUnits="userSpaceOnUse" color-interpolation-filters="sRGB">
<feFlood flood-opacity="0" result="BackgroundImageFix"/>
<feColorMatrix in="SourceAlpha" type="matrix" values="0 0 0 0 0 0 0 0 0 0 0 0 0 0 0 0 0 0 127 0" result="hardAlpha"/>
<feOffset dx="-10" dy="10"/>
<feGaussianBlur stdDeviation="15"/>
<feComposite in2="hardAlpha" operator="out"/>
<feColorMatrix type="matrix" values="0 0 0 0 0 0 0 0 0 0 0 0 0 0 0 0 0 0 0.25 0"/>
<feBlend mode="normal" in2="BackgroundImageFix" result="effect1_dropShadow_27_29"/>
<feBlend mode="normal" in="SourceGraphic" in2="effect1_dropShadow_27_29" result="shape"/>
</filter>
</defs>
</svg>
