<svg width="262" height="122" viewBox="0 0 262 122" fill="none" xmlns="http://www.w3.org/2000/svg">
<g filter="url(#filter0_d_27_61)">
<path d="M234.215 81.1979H48.4012C44.1073 81.1979 40.616 77.7223 40.616 73.4179V27.7801C40.616 23.489 44.1073 20 48.4012 20H234.215C238.509 20 242 23.489 242 27.7801V73.4312C242 77.7223 238.522 81.1979 234.215 81.1979Z" fill="black"/>
<path d="M106.616 56.9753H109.425V63.3384C108.609 63.9934 107.646 64.488 106.549 64.8489C105.452 65.1965 104.329 65.3703 103.165 65.3703C101.533 65.3703 100.061 65.0227 98.764 64.3142C97.4531 63.6057 96.4231 62.6299 95.6874 61.3867C94.9383 60.1435 94.5637 58.7265 94.5637 57.1624C94.5637 55.5984 94.9383 54.1948 95.6874 52.9382C96.4364 51.695 97.4664 50.7191 98.7773 50.0106C100.088 49.3022 101.573 48.9546 103.218 48.9546C104.556 48.9546 105.773 49.1818 106.87 49.623C107.967 50.0641 108.89 50.7058 109.639 51.5613L107.766 53.3927C106.549 52.1762 105.078 51.5613 103.365 51.5613C102.242 51.5613 101.239 51.8019 100.369 52.2698C99.4997 52.7377 98.8041 53.4061 98.3092 54.2616C97.8142 55.1172 97.5734 56.093 97.5734 57.1758C97.5734 58.2452 97.8142 59.1944 98.3092 60.0499C98.8041 60.9054 99.4863 61.5738 100.369 62.0551C101.239 62.5363 102.242 62.7903 103.352 62.7903C104.596 62.7903 105.693 62.5229 106.643 61.9749V56.9753H106.616Z" fill="white"/>
<path d="M115.204 64.5015C114.214 63.9668 113.438 63.2316 112.89 62.2825C112.328 61.3334 112.06 60.2506 112.06 59.0475C112.06 57.8444 112.341 56.7749 112.89 55.8258C113.451 54.8767 114.214 54.1415 115.204 53.6068C116.194 53.072 117.304 52.8047 118.534 52.8047C119.779 52.8047 120.902 53.072 121.892 53.6068C122.882 54.1415 123.658 54.8767 124.206 55.8258C124.768 56.7749 125.035 57.8444 125.035 59.0475C125.035 60.2506 124.755 61.32 124.206 62.2825C123.644 63.2316 122.882 63.9802 121.892 64.5015C120.902 65.0363 119.779 65.3036 118.534 65.3036C117.304 65.3036 116.194 65.0363 115.204 64.5015ZM121.143 61.8146C121.825 61.1195 122.173 60.1971 122.173 59.0475C122.173 57.9112 121.825 56.9888 121.143 56.2803C120.461 55.5852 119.591 55.2243 118.534 55.2243C117.478 55.2243 116.622 55.5718 115.939 56.2803C115.257 56.9755 114.923 57.8978 114.923 59.0475C114.923 60.1837 115.257 61.1061 115.939 61.8146C116.622 62.5097 117.478 62.8707 118.534 62.8707C119.591 62.8573 120.447 62.5097 121.143 61.8146Z" fill="white"/>
<path d="M129.931 64.5015C128.941 63.9668 128.166 63.2316 127.617 62.2825C127.055 61.3334 126.788 60.2506 126.788 59.0475C126.788 57.8444 127.069 56.7749 127.617 55.8258C128.179 54.8767 128.941 54.1415 129.931 53.6068C130.921 53.072 132.031 52.8047 133.262 52.8047C134.506 52.8047 135.63 53.072 136.62 53.6068C137.609 54.1415 138.385 54.8767 138.934 55.8258C139.496 56.7749 139.763 57.8444 139.763 59.0475C139.763 60.2506 139.482 61.32 138.934 62.2825C138.372 63.2316 137.609 63.9802 136.62 64.5015C135.63 65.0363 134.506 65.3036 133.262 65.3036C132.031 65.3036 130.921 65.0363 129.931 64.5015ZM135.87 61.8146C136.553 61.1195 136.9 60.1971 136.9 59.0475C136.9 57.9112 136.553 56.9888 135.87 56.2803C135.188 55.5852 134.319 55.2243 133.262 55.2243C132.205 55.2243 131.349 55.5718 130.667 56.2803C129.985 56.9755 129.65 57.8978 129.65 59.0475C129.65 60.1837 129.985 61.1061 130.667 61.8146C131.349 62.5097 132.205 62.8707 133.262 62.8707C134.319 62.8573 135.175 62.5097 135.87 61.8146Z" fill="white"/>
<path d="M154.611 52.9514V63.2847C154.611 67.5758 152.417 69.7146 148.03 69.7146C146.853 69.7146 145.742 69.5676 144.699 69.2735C143.642 68.9794 142.786 68.5516 142.091 67.9902L143.375 65.8513C143.91 66.2925 144.579 66.64 145.395 66.9074C146.211 67.1747 147.04 67.3084 147.869 67.3084C149.207 67.3084 150.197 67.001 150.812 66.3994C151.441 65.7845 151.748 64.8621 151.748 63.6189V62.9772C151.267 63.512 150.665 63.913 149.969 64.1803C149.274 64.4477 148.498 64.5948 147.669 64.5948C146.518 64.5948 145.461 64.3541 144.525 63.8595C143.589 63.3649 142.853 62.6698 142.305 61.7741C141.769 60.8785 141.489 59.8492 141.489 58.6995C141.489 57.5499 141.756 56.5206 142.305 55.6249C142.84 54.7293 143.589 54.0475 144.525 53.5663C145.461 53.085 146.505 52.8311 147.669 52.8311C148.551 52.8311 149.354 52.9781 150.076 53.2588C150.799 53.5529 151.401 53.9941 151.896 54.5822V52.9647H154.611V52.9514ZM150.759 61.1993C151.454 60.5577 151.802 59.7155 151.802 58.6728C151.802 57.6568 151.454 56.828 150.759 56.1864C150.063 55.5447 149.18 55.2239 148.097 55.2239C147 55.2239 146.104 55.5447 145.408 56.1864C144.712 56.828 144.365 57.6568 144.365 58.6728C144.365 59.7021 144.712 60.5443 145.408 61.1993C146.104 61.841 147 62.1752 148.097 62.1752C149.18 62.1752 150.076 61.8543 150.759 61.1993Z" fill="white"/>
<path d="M158.357 48.2061H161.206V65.1431H158.357V48.2061Z" fill="white"/>
<path d="M176.375 59.9563H166.81C166.984 60.8519 167.412 61.5604 168.121 62.0951C168.83 62.6165 169.713 62.8839 170.757 62.8839C172.094 62.8839 173.204 62.4427 174.074 61.5604L175.599 63.3116C175.05 63.9666 174.355 64.4613 173.525 64.7955C172.683 65.1296 171.746 65.3034 170.69 65.3034C169.352 65.3034 168.175 65.0361 167.145 64.5014C166.128 63.9666 165.339 63.2314 164.777 62.2823C164.215 61.3332 163.948 60.2504 163.948 59.0473C163.948 57.8575 164.215 56.7881 164.764 55.839C165.299 54.8899 166.048 54.1413 167.011 53.6199C167.974 53.0852 169.044 52.8179 170.248 52.8179C171.439 52.8179 172.495 53.0852 173.432 53.6066C174.368 54.1279 175.104 54.8632 175.626 55.8256C176.147 56.7748 176.415 57.8709 176.415 59.1275C176.415 59.3146 176.401 59.5954 176.375 59.9563ZM167.934 55.9058C167.305 56.4406 166.917 57.1624 166.784 58.0581H173.699C173.579 57.1758 173.204 56.4673 172.576 55.9192C171.947 55.3711 171.171 55.1038 170.248 55.1038C169.339 55.1038 168.563 55.3711 167.934 55.9058Z" fill="white"/>
<path d="M195.931 49.8502C196.961 50.3047 197.75 50.9597 198.299 51.8153C198.847 52.6708 199.115 53.6734 199.115 54.8498C199.115 55.9994 198.847 57.0154 198.299 57.8709C197.75 58.7265 196.961 59.3949 195.931 59.8494C194.901 60.3039 193.697 60.5311 192.306 60.5311H188.695V65.143H185.725V49.1685H192.306C193.697 49.1685 194.901 49.3957 195.931 49.8502ZM195.115 57.2025C195.784 56.6544 196.119 55.8657 196.119 54.8498C196.119 53.8338 195.784 53.0451 195.115 52.497C194.446 51.949 193.47 51.6816 192.172 51.6816H188.708V58.0313H192.172C193.47 58.018 194.446 57.7506 195.115 57.2025Z" fill="white"/>
<path d="M202.031 48.2061H204.88V65.1431H202.031V48.2061Z" fill="white"/>
<path d="M217.414 54.1012C218.364 54.9567 218.845 56.2534 218.845 57.9912V65.1296H216.157V63.6458C215.809 64.1805 215.314 64.5816 214.658 64.8623C214.016 65.143 213.227 65.2901 212.317 65.2901C211.408 65.2901 210.605 65.1296 209.923 64.8222C209.241 64.5147 208.706 64.0736 208.331 63.5255C207.957 62.9641 207.769 62.3491 207.769 61.6406C207.769 60.5445 208.171 59.6622 208.987 59.0072C209.803 58.3388 211.087 58.018 212.839 58.018H215.996V57.8308C215.996 56.9753 215.742 56.3202 215.234 55.8657C214.725 55.4112 213.963 55.184 212.96 55.184C212.277 55.184 211.595 55.2909 210.94 55.5048C210.271 55.7187 209.722 56.0128 209.268 56.4004L208.144 54.3284C208.786 53.8472 209.548 53.4729 210.445 53.2055C211.341 52.9515 212.291 52.8179 213.294 52.8179C215.086 52.8179 216.464 53.2456 217.414 54.1012ZM214.805 62.7368C215.367 62.416 215.755 61.9481 215.983 61.3332V59.9162H213.04C211.394 59.9162 210.578 60.4509 210.578 61.5337C210.578 62.055 210.779 62.4561 211.194 62.7635C211.608 63.071 212.17 63.218 212.906 63.218C213.615 63.218 214.257 63.0576 214.805 62.7368Z" fill="white"/>
<path d="M233.68 52.9512L227.968 66.1185C227.433 67.4419 226.791 68.3777 226.028 68.9124C225.266 69.4471 224.343 69.7278 223.259 69.7278C222.644 69.7278 222.056 69.6342 221.454 69.4337C220.865 69.2332 220.37 68.9658 219.996 68.6183L221.133 66.5195C221.4 66.7735 221.735 66.9874 222.109 67.1344C222.484 67.2815 222.858 67.3617 223.233 67.3617C223.741 67.3617 224.156 67.228 224.477 66.974C224.798 66.72 225.105 66.2789 225.373 65.6774L225.574 65.1961L220.25 52.9645H223.219L227.058 61.9745L230.911 52.9645H233.68V52.9512Z" fill="white"/>
<path d="M89.0791 49.8232L81.4009 45.3984L75.0872 51.4942L80.8525 57.0686L89.0657 52.323C89.5205 52.069 89.788 51.5877 89.788 51.0664C89.8014 50.5451 89.5205 50.0772 89.0791 49.8232Z" fill="#FFD109"/>
<path d="M80.1035 44.65L71.6495 39.7708L53.1498 30.293L74.0573 50.4918L80.1035 44.65Z" fill="#06EF79"/>
<path d="M53.4573 72.3884L71.6896 62.3492L79.555 57.8175L74.0572 52.4971L53.4573 72.3884Z" fill="#F93646"/>
<path d="M51.9191 31.1084L51.8923 71.8937L73.0139 51.4943L51.9191 31.1084Z" fill="#05D5FB"/>
<path d="M99.6737 40.2922C99.0316 40.2922 98.4296 40.1585 97.8678 39.8778C97.306 39.597 96.8245 39.2227 96.4098 38.7415C95.9951 38.2736 95.6741 37.7389 95.4467 37.1374C95.2193 36.5492 95.0989 35.9343 95.0989 35.2926C95.0989 34.6242 95.2193 33.9959 95.4467 33.4077C95.6741 32.8195 95.9951 32.2848 96.4098 31.8303C96.8245 31.3758 97.306 31.0149 97.8544 30.7475C98.4163 30.4802 99.0182 30.3599 99.6737 30.3599C100.623 30.3599 101.399 30.5604 102.028 30.948C102.643 31.3491 103.111 31.8571 103.419 32.4987L102.469 33.1671C102.188 32.5923 101.787 32.1779 101.292 31.8972C100.797 31.6164 100.249 31.4828 99.6469 31.4828C99.152 31.4828 98.6972 31.5897 98.2959 31.8036C97.8946 32.0175 97.5468 32.2982 97.2525 32.6725C96.9582 33.0334 96.7442 33.4478 96.5837 33.9023C96.4365 34.3568 96.3563 34.8381 96.3563 35.3327C96.3563 35.854 96.4365 36.3487 96.6104 36.8165C96.7843 37.2844 97.0251 37.6854 97.3328 38.0464C97.6404 38.4073 98.015 38.6747 98.4296 38.8752C98.8443 39.0757 99.2857 39.1826 99.7673 39.1826C100.329 39.1826 100.864 39.0356 101.372 38.7549C101.881 38.4741 102.362 38.033 102.804 37.4448V38.7281C101.921 39.7708 100.878 40.2922 99.6737 40.2922ZM102.657 36.2818H100.543V35.3461H103.7V40.2387H102.657V36.2818Z" fill="white"/>
<path d="M112.248 39.1292V40.2387H105.586V30.4268H112.114V31.5363H106.83V34.7045H111.432V35.7338H106.83V39.1159H112.248V39.1292Z" fill="white"/>
<path d="M121.023 31.5363H117.638V40.2387H116.394V31.5363H113.01V30.4268H121.023V31.5363Z" fill="white"/>
<path d="M125.517 40.2254V30.4268H126.761V40.2254H125.517Z" fill="white"/>
<path d="M130.346 32.726V40.2387H129.102V30.4268H130.145L136.138 38.0865V30.4401H137.382V40.2254H136.259L130.346 32.726Z" fill="white"/>
<path d="M147.214 40.2923C146.518 40.2923 145.903 40.1587 145.341 39.8779C144.779 39.5972 144.298 39.2229 143.883 38.755C143.468 38.2872 143.161 37.7525 142.933 37.1509C142.706 36.5627 142.599 35.9478 142.599 35.3195C142.599 34.6645 142.719 34.0362 142.947 33.448C143.188 32.8598 143.509 32.3251 143.923 31.8572C144.338 31.3894 144.833 31.0284 145.395 30.7477C145.957 30.4804 146.572 30.3467 147.227 30.3467C147.923 30.3467 148.538 30.4937 149.1 30.7745C149.662 31.0552 150.143 31.4428 150.545 31.9241C150.946 32.4053 151.267 32.94 151.481 33.5282C151.708 34.1164 151.815 34.718 151.815 35.3329C151.815 35.9879 151.695 36.6162 151.468 37.2044C151.24 37.7926 150.919 38.3273 150.491 38.7952C150.076 39.263 149.582 39.624 149.02 39.8913C148.485 40.172 147.869 40.2923 147.214 40.2923ZM143.856 35.3329C143.856 35.8275 143.937 36.3087 144.097 36.7766C144.258 37.2445 144.485 37.6589 144.779 38.0064C145.074 38.3674 145.435 38.6481 145.849 38.862C146.264 39.0759 146.719 39.1828 147.227 39.1828C147.749 39.1828 148.217 39.0759 148.632 38.8486C149.046 38.6214 149.394 38.3273 149.689 37.9663C149.983 37.592 150.197 37.1776 150.357 36.7231C150.505 36.2686 150.585 35.8008 150.585 35.3329C150.585 34.8383 150.505 34.357 150.344 33.9025C150.183 33.448 149.956 33.0336 149.648 32.6727C149.354 32.3118 148.993 32.0177 148.578 31.8171C148.164 31.6166 147.709 31.5097 147.214 31.5097C146.692 31.5097 146.224 31.6166 145.809 31.8305C145.395 32.0444 145.047 32.3385 144.753 32.7128C144.458 33.0871 144.244 33.4881 144.084 33.9426C143.937 34.3838 143.856 34.8516 143.856 35.3329Z" fill="white"/>
<path d="M154.812 32.726V40.2387H153.568V30.4268H154.611L160.604 38.0865V30.4401H161.848V40.2254H160.711L154.812 32.726Z" fill="white"/>
</g>
<defs>
<filter id="filter0_d_27_61" x="0.616028" y="0" width="261.384" height="121.198" filterUnits="userSpaceOnUse" color-interpolation-filters="sRGB">
<feFlood flood-opacity="0" result="BackgroundImageFix"/>
<feColorMatrix in="SourceAlpha" type="matrix" values="0 0 0 0 0 0 0 0 0 0 0 0 0 0 0 0 0 0 127 0" result="hardAlpha"/>
<feOffset dx="-10" dy="10"/>
<feGaussianBlur stdDeviation="15"/>
<feComposite in2="hardAlpha" operator="out"/>
<feColorMatrix type="matrix" values="0 0 0 0 0 0 0 0 0 0 0 0 0 0 0 0 0 0 0.25 0"/>
<feBlend mode="normal" in2="BackgroundImageFix" result="effect1_dropShadow_27_61"/>
<feBlend mode="normal" in="SourceGraphic" in2="effect1_dropShadow_27_61" result="shape"/>
</filter>
</defs>
</svg>
