<svg width="24" height="24" viewBox="0 0 24 24" fill="none" xmlns="http://www.w3.org/2000/svg">
<path d="M17.0784 2.26624H7.00336C4.2212 2.26624 1.96582 4.52162 1.96582 7.30378V17.3789C1.96582 20.161 4.2212 22.4164 7.00336 22.4164H17.0784C19.8606 22.4164 22.116 20.161 22.116 17.3789V7.30378C22.116 4.52162 19.8606 2.26624 17.0784 2.26624Z" stroke="white" stroke-width="3" stroke-linecap="round" stroke-linejoin="round"/>
<path d="M16.0709 11.7066C16.1953 12.5451 16.052 13.4014 15.6616 14.1538C15.2712 14.9062 14.6535 15.5164 13.8963 15.8975C13.1392 16.2786 12.2811 16.4112 11.4442 16.2766C10.6073 16.1419 9.83421 15.7468 9.23482 15.1474C8.63543 14.548 8.2403 13.7749 8.10563 12.938C7.97096 12.1011 8.10361 11.243 8.48471 10.4859C8.86582 9.7287 9.47596 9.11098 10.2284 8.72057C10.9808 8.33016 11.8371 8.18694 12.6756 8.31128C13.5309 8.43811 14.3227 8.83666 14.9341 9.44806C15.5455 10.0595 15.9441 10.8513 16.0709 11.7066Z" stroke="white" stroke-width="3" stroke-linecap="round" stroke-linejoin="round"/>
<path d="M17.5822 6.80003H17.5926" stroke="white" stroke-width="3" stroke-linecap="round" stroke-linejoin="round"/>
</svg>
